<mxfile host="Electron" modified="2024-02-22T05:42:58.504Z" agent="Mozilla/5.0 (Windows NT 10.0; Win64; x64) AppleWebKit/537.36 (KHTML, like Gecko) draw.io/23.0.2 Chrome/120.0.6099.109 Electron/28.1.0 Safari/537.36" etag="gKHwEV-wFipeSTkYDK51" version="23.0.2" type="device">
  <diagram name="Страница — 1" id="D8oiCiIip2aWfvN_S4wd">
    <mxGraphModel dx="778" dy="473" grid="1" gridSize="10" guides="1" tooltips="1" connect="1" arrows="1" fold="1" page="1" pageScale="1" pageWidth="827" pageHeight="1169" math="0" shadow="0">
      <root>
        <mxCell id="0" />
        <mxCell id="1" parent="0" />
        <mxCell id="Q7UkVJycJXifHdzpQewz-3" style="edgeStyle=orthogonalEdgeStyle;rounded=0;orthogonalLoop=1;jettySize=auto;html=1;exitX=0.5;exitY=1;exitDx=0;exitDy=0;entryX=0.5;entryY=0;entryDx=0;entryDy=0;" edge="1" parent="1" source="Q7UkVJycJXifHdzpQewz-1">
          <mxGeometry relative="1" as="geometry">
            <mxPoint x="410" y="539.9999999999999" as="targetPoint" />
          </mxGeometry>
        </mxCell>
        <mxCell id="Q7UkVJycJXifHdzpQewz-4" value="Кол-во товара" style="edgeLabel;html=1;align=center;verticalAlign=middle;resizable=0;points=[];" vertex="1" connectable="0" parent="Q7UkVJycJXifHdzpQewz-3">
          <mxGeometry x="-0.0278" y="-1" relative="1" as="geometry">
            <mxPoint x="1" y="-38" as="offset" />
          </mxGeometry>
        </mxCell>
        <mxCell id="Q7UkVJycJXifHdzpQewz-1" value="Проведение инвентаризации" style="ellipse;whiteSpace=wrap;html=1;" vertex="1" parent="1">
          <mxGeometry x="370" y="340" width="80" height="80" as="geometry" />
        </mxCell>
        <mxCell id="Q7UkVJycJXifHdzpQewz-28" style="edgeStyle=orthogonalEdgeStyle;rounded=0;orthogonalLoop=1;jettySize=auto;html=1;exitX=0.5;exitY=0;exitDx=0;exitDy=0;entryX=0.5;entryY=1;entryDx=0;entryDy=0;" edge="1" parent="1" source="Q7UkVJycJXifHdzpQewz-5" target="Q7UkVJycJXifHdzpQewz-27">
          <mxGeometry relative="1" as="geometry" />
        </mxCell>
        <mxCell id="Q7UkVJycJXifHdzpQewz-75" value="Поставка" style="edgeLabel;html=1;align=center;verticalAlign=middle;resizable=0;points=[];" vertex="1" connectable="0" parent="Q7UkVJycJXifHdzpQewz-28">
          <mxGeometry x="-0.05" relative="1" as="geometry">
            <mxPoint as="offset" />
          </mxGeometry>
        </mxCell>
        <mxCell id="Q7UkVJycJXifHdzpQewz-5" value="Поставщик" style="rounded=0;whiteSpace=wrap;html=1;" vertex="1" parent="1">
          <mxGeometry x="656" y="540" width="80" height="40" as="geometry" />
        </mxCell>
        <mxCell id="Q7UkVJycJXifHdzpQewz-35" style="edgeStyle=orthogonalEdgeStyle;rounded=0;orthogonalLoop=1;jettySize=auto;html=1;exitX=0.5;exitY=1;exitDx=0;exitDy=0;entryX=0.5;entryY=0;entryDx=0;entryDy=0;" edge="1" parent="1" source="Q7UkVJycJXifHdzpQewz-6" target="Q7UkVJycJXifHdzpQewz-32">
          <mxGeometry relative="1" as="geometry" />
        </mxCell>
        <mxCell id="Q7UkVJycJXifHdzpQewz-52" value="Заказ" style="edgeLabel;html=1;align=center;verticalAlign=middle;resizable=0;points=[];" vertex="1" connectable="0" parent="Q7UkVJycJXifHdzpQewz-35">
          <mxGeometry x="-0.0759" y="1" relative="1" as="geometry">
            <mxPoint as="offset" />
          </mxGeometry>
        </mxCell>
        <mxCell id="Q7UkVJycJXifHdzpQewz-6" value="Заказчик" style="rounded=0;whiteSpace=wrap;html=1;" vertex="1" parent="1">
          <mxGeometry x="90" y="140" width="80" height="40" as="geometry" />
        </mxCell>
        <mxCell id="Q7UkVJycJXifHdzpQewz-14" value="" style="group" vertex="1" connectable="0" parent="1">
          <mxGeometry x="370" y="540" width="80" height="40" as="geometry" />
        </mxCell>
        <mxCell id="Q7UkVJycJXifHdzpQewz-15" value="" style="endArrow=none;html=1;rounded=0;" edge="1" parent="Q7UkVJycJXifHdzpQewz-14">
          <mxGeometry width="50" height="50" relative="1" as="geometry">
            <mxPoint as="sourcePoint" />
            <mxPoint x="80" as="targetPoint" />
          </mxGeometry>
        </mxCell>
        <mxCell id="Q7UkVJycJXifHdzpQewz-16" value="" style="endArrow=none;html=1;rounded=0;" edge="1" parent="Q7UkVJycJXifHdzpQewz-14">
          <mxGeometry width="50" height="50" relative="1" as="geometry">
            <mxPoint y="40" as="sourcePoint" />
            <mxPoint x="80" y="40" as="targetPoint" />
          </mxGeometry>
        </mxCell>
        <mxCell id="Q7UkVJycJXifHdzpQewz-17" value="Товары на складе" style="text;html=1;strokeColor=none;fillColor=none;align=center;verticalAlign=middle;whiteSpace=wrap;rounded=0;" vertex="1" parent="Q7UkVJycJXifHdzpQewz-14">
          <mxGeometry width="80" height="40" as="geometry" />
        </mxCell>
        <mxCell id="Q7UkVJycJXifHdzpQewz-21" style="edgeStyle=orthogonalEdgeStyle;rounded=0;orthogonalLoop=1;jettySize=auto;html=1;exitX=1;exitY=0.5;exitDx=0;exitDy=0;entryX=0.5;entryY=1;entryDx=0;entryDy=0;" edge="1" parent="1" source="Q7UkVJycJXifHdzpQewz-18" target="Q7UkVJycJXifHdzpQewz-47">
          <mxGeometry relative="1" as="geometry" />
        </mxCell>
        <mxCell id="Q7UkVJycJXifHdzpQewz-18" value="Заявка на поставку" style="ellipse;whiteSpace=wrap;html=1;" vertex="1" parent="1">
          <mxGeometry x="370" y="660" width="80" height="80" as="geometry" />
        </mxCell>
        <mxCell id="Q7UkVJycJXifHdzpQewz-19" style="edgeStyle=orthogonalEdgeStyle;rounded=0;orthogonalLoop=1;jettySize=auto;html=1;exitX=0.5;exitY=1;exitDx=0;exitDy=0;entryX=0.5;entryY=0;entryDx=0;entryDy=0;" edge="1" parent="1" source="Q7UkVJycJXifHdzpQewz-17" target="Q7UkVJycJXifHdzpQewz-18">
          <mxGeometry relative="1" as="geometry" />
        </mxCell>
        <mxCell id="Q7UkVJycJXifHdzpQewz-20" value="Кол-во товара" style="edgeLabel;html=1;align=center;verticalAlign=middle;resizable=0;points=[];" vertex="1" connectable="0" parent="Q7UkVJycJXifHdzpQewz-19">
          <mxGeometry x="-0.0417" relative="1" as="geometry">
            <mxPoint as="offset" />
          </mxGeometry>
        </mxCell>
        <mxCell id="Q7UkVJycJXifHdzpQewz-25" style="edgeStyle=orthogonalEdgeStyle;rounded=0;orthogonalLoop=1;jettySize=auto;html=1;exitX=1;exitY=0.5;exitDx=0;exitDy=0;entryX=0.5;entryY=0;entryDx=0;entryDy=0;" edge="1" parent="1" source="Q7UkVJycJXifHdzpQewz-22" target="Q7UkVJycJXifHdzpQewz-1">
          <mxGeometry relative="1" as="geometry" />
        </mxCell>
        <mxCell id="Q7UkVJycJXifHdzpQewz-26" style="edgeStyle=orthogonalEdgeStyle;rounded=0;orthogonalLoop=1;jettySize=auto;html=1;exitX=0.5;exitY=1;exitDx=0;exitDy=0;entryX=0;entryY=0.5;entryDx=0;entryDy=0;" edge="1" parent="1" source="Q7UkVJycJXifHdzpQewz-22" target="Q7UkVJycJXifHdzpQewz-18">
          <mxGeometry relative="1" as="geometry" />
        </mxCell>
        <mxCell id="Q7UkVJycJXifHdzpQewz-29" style="edgeStyle=orthogonalEdgeStyle;rounded=0;orthogonalLoop=1;jettySize=auto;html=1;exitX=0.5;exitY=0;exitDx=0;exitDy=0;entryX=0.5;entryY=0;entryDx=0;entryDy=0;" edge="1" parent="1" source="Q7UkVJycJXifHdzpQewz-22" target="Q7UkVJycJXifHdzpQewz-27">
          <mxGeometry relative="1" as="geometry">
            <mxPoint x="570" y="280" as="targetPoint" />
            <Array as="points">
              <mxPoint x="250" y="220" />
              <mxPoint x="696" y="220" />
            </Array>
          </mxGeometry>
        </mxCell>
        <mxCell id="Q7UkVJycJXifHdzpQewz-36" style="edgeStyle=orthogonalEdgeStyle;rounded=0;orthogonalLoop=1;jettySize=auto;html=1;exitX=0;exitY=0.5;exitDx=0;exitDy=0;entryX=1;entryY=0.5;entryDx=0;entryDy=0;" edge="1" parent="1" source="Q7UkVJycJXifHdzpQewz-22" target="Q7UkVJycJXifHdzpQewz-32">
          <mxGeometry relative="1" as="geometry" />
        </mxCell>
        <mxCell id="Q7UkVJycJXifHdzpQewz-60" style="edgeStyle=orthogonalEdgeStyle;rounded=0;orthogonalLoop=1;jettySize=auto;html=1;exitX=0.25;exitY=0;exitDx=0;exitDy=0;entryX=1;entryY=0.5;entryDx=0;entryDy=0;" edge="1" parent="1" source="Q7UkVJycJXifHdzpQewz-22" target="Q7UkVJycJXifHdzpQewz-6">
          <mxGeometry relative="1" as="geometry" />
        </mxCell>
        <mxCell id="Q7UkVJycJXifHdzpQewz-61" value="Товар" style="edgeLabel;html=1;align=center;verticalAlign=middle;resizable=0;points=[];" vertex="1" connectable="0" parent="Q7UkVJycJXifHdzpQewz-60">
          <mxGeometry x="-0.0175" y="-2" relative="1" as="geometry">
            <mxPoint as="offset" />
          </mxGeometry>
        </mxCell>
        <mxCell id="Q7UkVJycJXifHdzpQewz-71" style="edgeStyle=orthogonalEdgeStyle;rounded=0;orthogonalLoop=1;jettySize=auto;html=1;exitX=0.75;exitY=0;exitDx=0;exitDy=0;entryX=0.5;entryY=0;entryDx=0;entryDy=0;" edge="1" parent="1" source="Q7UkVJycJXifHdzpQewz-22" target="Q7UkVJycJXifHdzpQewz-68">
          <mxGeometry relative="1" as="geometry" />
        </mxCell>
        <mxCell id="Q7UkVJycJXifHdzpQewz-22" value="Сотрудник склада" style="rounded=0;whiteSpace=wrap;html=1;" vertex="1" parent="1">
          <mxGeometry x="210" y="260" width="80" height="40" as="geometry" />
        </mxCell>
        <mxCell id="Q7UkVJycJXifHdzpQewz-69" style="edgeStyle=orthogonalEdgeStyle;rounded=0;orthogonalLoop=1;jettySize=auto;html=1;exitX=0;exitY=0.5;exitDx=0;exitDy=0;entryX=1;entryY=0.5;entryDx=0;entryDy=0;" edge="1" parent="1" source="Q7UkVJycJXifHdzpQewz-27" target="Q7UkVJycJXifHdzpQewz-68">
          <mxGeometry relative="1" as="geometry" />
        </mxCell>
        <mxCell id="Q7UkVJycJXifHdzpQewz-27" value="Прием поставки" style="ellipse;whiteSpace=wrap;html=1;" vertex="1" parent="1">
          <mxGeometry x="656" y="420" width="80" height="80" as="geometry" />
        </mxCell>
        <mxCell id="Q7UkVJycJXifHdzpQewz-48" style="edgeStyle=orthogonalEdgeStyle;rounded=0;orthogonalLoop=1;jettySize=auto;html=1;exitX=0.5;exitY=1;exitDx=0;exitDy=0;entryX=0.5;entryY=0;entryDx=0;entryDy=0;" edge="1" parent="1" source="Q7UkVJycJXifHdzpQewz-32" target="Q7UkVJycJXifHdzpQewz-43">
          <mxGeometry relative="1" as="geometry" />
        </mxCell>
        <mxCell id="Q7UkVJycJXifHdzpQewz-32" value="Оформление заказа" style="ellipse;whiteSpace=wrap;html=1;" vertex="1" parent="1">
          <mxGeometry x="90" y="240" width="80" height="80" as="geometry" />
        </mxCell>
        <mxCell id="Q7UkVJycJXifHdzpQewz-39" style="edgeStyle=orthogonalEdgeStyle;rounded=0;orthogonalLoop=1;jettySize=auto;html=1;entryX=0.25;entryY=0;entryDx=0;entryDy=0;" edge="1" parent="1" source="Q7UkVJycJXifHdzpQewz-37" target="Q7UkVJycJXifHdzpQewz-17">
          <mxGeometry relative="1" as="geometry" />
        </mxCell>
        <mxCell id="Q7UkVJycJXifHdzpQewz-37" value="Изменение остатка товара" style="ellipse;whiteSpace=wrap;html=1;aspect=fixed;" vertex="1" parent="1">
          <mxGeometry x="150" y="420" width="80" height="80" as="geometry" />
        </mxCell>
        <mxCell id="Q7UkVJycJXifHdzpQewz-40" value="" style="group" vertex="1" connectable="0" parent="1">
          <mxGeometry x="90" y="340" width="80" height="40" as="geometry" />
        </mxCell>
        <mxCell id="Q7UkVJycJXifHdzpQewz-41" value="" style="endArrow=none;html=1;rounded=0;" edge="1" parent="Q7UkVJycJXifHdzpQewz-40">
          <mxGeometry width="50" height="50" relative="1" as="geometry">
            <mxPoint as="sourcePoint" />
            <mxPoint x="80" as="targetPoint" />
          </mxGeometry>
        </mxCell>
        <mxCell id="Q7UkVJycJXifHdzpQewz-42" value="" style="endArrow=none;html=1;rounded=0;" edge="1" parent="Q7UkVJycJXifHdzpQewz-40">
          <mxGeometry width="50" height="50" relative="1" as="geometry">
            <mxPoint y="40" as="sourcePoint" />
            <mxPoint x="80" y="40" as="targetPoint" />
          </mxGeometry>
        </mxCell>
        <mxCell id="Q7UkVJycJXifHdzpQewz-43" value="Сведения о заказе" style="text;html=1;strokeColor=none;fillColor=none;align=center;verticalAlign=middle;whiteSpace=wrap;rounded=0;" vertex="1" parent="Q7UkVJycJXifHdzpQewz-40">
          <mxGeometry width="80" height="40" as="geometry" />
        </mxCell>
        <mxCell id="Q7UkVJycJXifHdzpQewz-44" value="" style="group" vertex="1" connectable="0" parent="1">
          <mxGeometry x="656" y="640" width="80" height="40" as="geometry" />
        </mxCell>
        <mxCell id="Q7UkVJycJXifHdzpQewz-45" value="" style="endArrow=none;html=1;rounded=0;" edge="1" parent="Q7UkVJycJXifHdzpQewz-44">
          <mxGeometry width="50" height="50" relative="1" as="geometry">
            <mxPoint as="sourcePoint" />
            <mxPoint x="80" as="targetPoint" />
          </mxGeometry>
        </mxCell>
        <mxCell id="Q7UkVJycJXifHdzpQewz-46" value="" style="endArrow=none;html=1;rounded=0;" edge="1" parent="Q7UkVJycJXifHdzpQewz-44">
          <mxGeometry width="50" height="50" relative="1" as="geometry">
            <mxPoint y="40" as="sourcePoint" />
            <mxPoint x="80" y="40" as="targetPoint" />
          </mxGeometry>
        </mxCell>
        <mxCell id="Q7UkVJycJXifHdzpQewz-47" value="Сведения о поставке" style="text;html=1;strokeColor=none;fillColor=none;align=center;verticalAlign=middle;whiteSpace=wrap;rounded=0;" vertex="1" parent="Q7UkVJycJXifHdzpQewz-44">
          <mxGeometry width="80" height="40" as="geometry" />
        </mxCell>
        <mxCell id="Q7UkVJycJXifHdzpQewz-49" style="edgeStyle=orthogonalEdgeStyle;rounded=0;orthogonalLoop=1;jettySize=auto;html=1;exitX=0.5;exitY=1;exitDx=0;exitDy=0;entryX=0;entryY=0.5;entryDx=0;entryDy=0;" edge="1" parent="1" source="Q7UkVJycJXifHdzpQewz-43" target="Q7UkVJycJXifHdzpQewz-37">
          <mxGeometry relative="1" as="geometry" />
        </mxCell>
        <mxCell id="Q7UkVJycJXifHdzpQewz-55" style="edgeStyle=orthogonalEdgeStyle;rounded=0;orthogonalLoop=1;jettySize=auto;html=1;exitX=0.5;exitY=0;exitDx=0;exitDy=0;entryX=0.5;entryY=1;entryDx=0;entryDy=0;" edge="1" parent="1" source="Q7UkVJycJXifHdzpQewz-47" target="Q7UkVJycJXifHdzpQewz-5">
          <mxGeometry relative="1" as="geometry" />
        </mxCell>
        <mxCell id="Q7UkVJycJXifHdzpQewz-56" value="Запрос на поставку" style="edgeLabel;html=1;align=center;verticalAlign=middle;resizable=0;points=[];" vertex="1" connectable="0" parent="Q7UkVJycJXifHdzpQewz-55">
          <mxGeometry x="-0.1517" relative="1" as="geometry">
            <mxPoint as="offset" />
          </mxGeometry>
        </mxCell>
        <mxCell id="Q7UkVJycJXifHdzpQewz-63" style="edgeStyle=orthogonalEdgeStyle;rounded=0;orthogonalLoop=1;jettySize=auto;html=1;exitX=0.75;exitY=1;exitDx=0;exitDy=0;entryX=0.25;entryY=1;entryDx=0;entryDy=0;" edge="1" parent="1" source="Q7UkVJycJXifHdzpQewz-43" target="Q7UkVJycJXifHdzpQewz-22">
          <mxGeometry relative="1" as="geometry" />
        </mxCell>
        <mxCell id="Q7UkVJycJXifHdzpQewz-70" style="edgeStyle=orthogonalEdgeStyle;rounded=0;orthogonalLoop=1;jettySize=auto;html=1;exitX=0;exitY=0.5;exitDx=0;exitDy=0;entryX=0.75;entryY=0;entryDx=0;entryDy=0;" edge="1" parent="1" source="Q7UkVJycJXifHdzpQewz-68" target="Q7UkVJycJXifHdzpQewz-17">
          <mxGeometry relative="1" as="geometry" />
        </mxCell>
        <mxCell id="Q7UkVJycJXifHdzpQewz-74" value="Товар" style="edgeLabel;html=1;align=center;verticalAlign=middle;resizable=0;points=[];" vertex="1" connectable="0" parent="Q7UkVJycJXifHdzpQewz-70">
          <mxGeometry x="-0.4242" y="2" relative="1" as="geometry">
            <mxPoint as="offset" />
          </mxGeometry>
        </mxCell>
        <mxCell id="Q7UkVJycJXifHdzpQewz-72" style="edgeStyle=orthogonalEdgeStyle;rounded=0;orthogonalLoop=1;jettySize=auto;html=1;exitX=0.5;exitY=1;exitDx=0;exitDy=0;entryX=0;entryY=0.5;entryDx=0;entryDy=0;" edge="1" parent="1" source="Q7UkVJycJXifHdzpQewz-68" target="Q7UkVJycJXifHdzpQewz-5">
          <mxGeometry relative="1" as="geometry" />
        </mxCell>
        <mxCell id="Q7UkVJycJXifHdzpQewz-73" value="Товар" style="edgeLabel;html=1;align=center;verticalAlign=middle;resizable=0;points=[];" vertex="1" connectable="0" parent="Q7UkVJycJXifHdzpQewz-72">
          <mxGeometry x="-0.4764" relative="1" as="geometry">
            <mxPoint as="offset" />
          </mxGeometry>
        </mxCell>
        <mxCell id="Q7UkVJycJXifHdzpQewz-68" value="Проверка товара" style="ellipse;whiteSpace=wrap;html=1;" vertex="1" parent="1">
          <mxGeometry x="536" y="420" width="80" height="80" as="geometry" />
        </mxCell>
      </root>
    </mxGraphModel>
  </diagram>
</mxfile>
